<?xml version="1.0" encoding="UTF-8" standalone="no"?>
<!-- Created with Inkscape (http://www.inkscape.org/) -->

<svg
   width="1000"
   height="400"
   viewBox="0 0 257.76365 103.10546"
   version="1.1"
   id="svg5"
   xmlns="http://www.w3.org/2000/svg"
   xmlns:svg="http://www.w3.org/2000/svg">
  <defs
     id="defs2" />
  <g
     id="layer1">
    <path
       id="path30220"
       style="fill:#000000;fill-opacity:0.568627;stroke-width:13.4987;stroke-dasharray:none"
       d="M 113.20003,2.7664282 56.792582,109.83903 c 0.950972,0.43755 1.923793,0.96548 2.934075,1.67597 0.04533,0.032 0.09103,0.0646 0.136433,0.0967 0.06632,-0.005 0.131158,-0.0166 0.198358,-0.0161 35.160769,6.95222 69.314252,-6.061 81.133622,-30.437255 0.14775,-0.463448 0.35747,-0.898017 0.60816,-1.311473 8.86339,-19.931225 3.03185,-47.116109 -28.6032,-77.0803938 z" />
    <path
       id="path30220-6"
       style="fill:#002800;fill-opacity:0.568627;stroke-width:13.4987;stroke-dasharray:none"
       d="M 113.23829,2.7749868 56.830843,109.84759 c 0.95098,0.43755 1.923794,0.96548 2.934076,1.67597 0.04533,0.032 0.09103,0.0646 0.136433,0.0967 0.06632,-0.005 0.131165,-0.0172 0.198357,-0.0166 35.062314,6.93275 69.124611,-5.9874 81.035451,-30.231855 0.005,-0.02181 0.01,-0.04365 0.0146,-0.06545 0.17306,-0.6051 0.4536,-1.160936 0.79494,-1.684023 8.71467,-19.909833 2.80551,-46.999645 -28.70641,-76.8472982 z" />
    <path
       id="path314"
       style="fill:#000000;fill-opacity:0.568627;stroke-width:6.30587"
       d="m 107.15567,1.5007684 c -4.71036,-0.064319 -9.574344,1.2443657 -14.27215,3.1218602 -0.235196,0.109366 -0.475183,0.2081968 -0.720429,0.2925013 -0.05645,0.021511 -0.112738,0.043638 -0.169157,0.065448 -5.093421,2.1212795 -9.964174,4.8647281 -14.191601,7.2143613 -3.324294,1.847653 -6.430427,3.866538 -9.322284,6.035294 -0.22595,0.298056 -0.524829,0.531572 -0.79645,0.786381 -0.436646,0.450184 -0.980493,0.786197 -1.549099,1.044144 -3.744758,3.040577 -7.090262,6.349477 -10.039693,9.876577 -0.01698,0.02663 -0.01999,0.03132 -0.05085,0.08005 -0.130065,0.155717 -0.224587,0.339082 -0.34486,0.500927 -0.09974,0.134204 -0.226859,0.25774 -0.335294,0.385639 -0.193578,0.20796 -0.364373,0.436525 -0.544727,0.655988 -0.117933,0.14668 -0.243235,0.286245 -0.372046,0.422893 -4.204228,5.425958 -7.500743,11.330516 -9.887149,17.554611 -0.02877,0.138303 -0.05873,0.276544 -0.09213,0.413832 -0.07227,0.285348 -0.149151,0.570202 -0.261791,0.842766 -0.05309,0.134575 -0.102035,0.269702 -0.136937,0.410307 -0.05727,0.168269 -0.126891,0.332039 -0.196847,0.49539 -0.06937,0.168476 -0.133356,0.33999 -0.179227,0.516534 -0.03345,0.130024 -0.06375,0.260967 -0.12133,0.383121 -0.0712,0.167565 -0.159992,0.32528 -0.252729,0.481797 -0.0049,0.0087 -0.01013,0.01746 -0.0151,0.02618 -1.124175,3.491977 -1.975166,7.070288 -2.542899,10.712295 -0.02437,0.255915 -0.04746,0.511944 -0.06192,0.76876 -0.02549,0.687108 -0.06857,1.373086 -0.143481,2.056571 -0.09114,0.662859 -0.233639,1.316104 -0.377584,1.968972 -0.350532,3.992691 -0.377671,8.043839 -0.07099,12.121436 0.05882,0.508995 0.110324,1.018762 0.137944,1.530472 0.0042,0.06843 0.0075,0.136903 0.01007,0.205405 0.703466,7.178182 2.426229,14.422059 5.180445,21.550452 L 111.44804,1.9704823 c -1.4097,-0.301004 -2.84386,-0.4499356 -4.29237,-0.4697139 z" />
    <path
       id="path588-1"
       style="fill:#002800;fill-opacity:0.568627;stroke-width:4.1363;stroke-dasharray:none"
       d="m 58.886839,-41.467917 c -0.06008,-0.09091 -0.135666,-0.108987 -0.233594,-0.10874 -0.448849,0.0012 -83.136884,18.92349 -84.178931,19.262346 0.02315,0.04362 0.0462,0.08768 0.06934,0.131317 0.208419,0.403623 0.415048,0.809702 0.62095,1.216742 0.13594,0.284476 0.272724,0.567046 0.404056,0.857226 0.02203,0.04638 0.044,0.09298 0.06553,0.139983 0.03732,0.08235 0.07386,0.165903 0.109493,0.250324 0.889191,1.355338 1.927675,3.061647 2.750766,4.580372 1.760819,3.248936 4.328375,9.3220432 6.769178,16.01134342 0.980053,2.68594148 1.851261,5.02200628 2.677624,7.20804788 0.131451,0.2181413 0.261827,0.437119 0.389809,0.6617875 0.271194,0.4706696 0.517174,0.9753573 0.764056,1.4793442 0.234116,0.481226 0.447837,0.987461 0.655547,1.499455 0.177035,0.432918 0.3536959,0.866965 0.5431783,1.28583 0.1890705,0.414912 0.3795255,0.828774 0.5754866,1.235132 0.2298036,0.424297 0.4384733,0.878387 0.6468301,1.330781 0.2066106,0.455693 0.419393,0.903937 0.6271364,1.358231 0.052312,0.10639 0.1027196,0.214888 0.1522238,0.324664 0.1485774,0.329243 0.2875008,0.6701 0.4339825,1.001854 0.2170661,0.491941 0.4252761,0.994176 0.6378301,1.491269 0.1916027,0.461673 0.384755,0.921658 0.5720523,1.388003 0.1622269,0.410074 0.3294211,0.814306 0.4984577,1.216974 0.1807776,0.420979 0.3668573,0.835838 0.5596373,1.242431 0.2151659,0.434114 0.4213701,0.880043 0.6277558,1.325239 0.1751749,0.356253 0.3360622,0.731439 0.4988341,1.103104 0.1286932,0.291238 0.2555869,0.584277 0.3807648,0.879562 0.018326,0.04549 0.14132,0.324025 0.2026865,0.471022 0.4541342,0.699953 0.9147809,1.363973 1.3916342,2.009773 5.4543828,7.386574 14.2286305,11.421184 22.4053235,10.301229 9.622723,-1.318016 19.306898,-10.256905 26.58938,-23.818722 0.0014,-0.0039 0.0029,-0.0078 0.0045,-0.01169 0.02683,-0.06574 0.06402,-0.11761 0.09833,-0.173518 2.544252,-4.767719 4.797726,-10.0912891 6.640589,-15.8676074 3.907225,-12.2467516 5.675454,-24.4856836 5.349341,-37.0236816 -0.07955,-3.057602 -0.119496,-3.986794 -0.299749,-4.259558 z" />
    <path
       id="path588-1-2"
       style="fill:#002800;fill-opacity:0.568627;stroke-width:3.24002;stroke-dasharray:none"
       d="m 158.54529,89.589985 c -9.38381,-0.0054 -19.24778,4.29695 -27.17595,11.500685 -0.002,0.002 -0.004,0.004 -0.005,0.006 -0.0312,0.037 -0.0717,0.0645 -0.10975,0.0946 -2.86132,2.61608 -5.47265,5.6041 -7.70774,8.915 -4.73874,7.0196 -7.35211,14.27825 -7.90559,21.95824 -0.13496,1.87291 -0.15998,2.44417 0,2.631 l -0.002,0.001 c 0.0533,0.0622 0.12722,0.0821 0.22453,0.0931 0.446,0.0504 83.91846,-2.05294 84.97743,-2.14065 -0.0199,-0.0293 -0.0394,-0.0583 -0.0594,-0.0876 -0.17879,-0.26982 -0.35604,-0.54097 -0.53214,-0.81256 -0.11471,-0.18916 -0.23118,-0.37701 -0.34133,-0.56889 -0.0185,-0.0308 -0.0373,-0.0617 -0.0559,-0.0926 -0.0313,-0.0545 -0.0615,-0.10941 -0.0906,-0.16513 -0.78849,-0.9276 -1.70107,-2.0861 -2.4125,-3.10575 -1.52195,-2.18131 -3.64764,-6.17604 -5.60435,-10.53207 -0.78568,-1.74901 -1.48778,-3.27284 -2.15575,-4.69965 -0.11535,-0.14796 -0.22943,-0.29601 -0.34083,-0.44756 -0.23651,-0.31783 -0.44547,-0.6534 -0.65548,-0.98877 -0.19894,-0.32003 -0.37624,-0.65318 -0.54624,-0.98927 -0.1456,-0.28407 -0.29065,-0.56884 -0.44958,-0.84578 -0.15923,-0.27425 -0.31861,-0.54882 -0.48532,-0.81861 -0.19863,-0.28479 -0.37392,-0.58502 -0.54926,-0.88455 -0.17337,-0.30135 -0.35353,-0.59902 -0.52811,-0.89965 -0.0445,-0.0708 -0.0874,-0.14266 -0.12838,-0.21548 -0.12491,-0.21744 -0.23866,-0.44107 -0.36097,-0.66001 -0.18087,-0.32483 -0.35274,-0.65496 -0.52912,-0.98222 -0.15805,-0.30327 -0.31781,-0.60559 -0.47122,-0.91124 -0.13246,-0.26849 -0.27055,-0.53373 -0.41031,-0.79846 -0.15048,-0.27704 -0.30608,-0.55153 -0.46871,-0.82162 -0.18338,-0.28916 -0.35725,-0.5841 -0.53113,-0.87902 -0.14911,-0.23714 -0.28199,-0.48446 -0.41786,-0.72949 -0.10747,-0.19221 -0.21289,-0.38575 -0.31667,-0.57997 -0.0146,-0.03 -0.11807,-0.213179 -0.16815,-0.310119 -0.40218,-0.478474 -0.81346,-0.935925 -1.242,-1.383969 -4.90179,-5.12477 -13.33623,-8.58502 -21.53786,-8.83495 -0.30146,-0.0092 -0.60366,-0.01391 -0.9062,-0.0141 z" />
    <path
       id="path588-1-2-2"
       style="fill:#002800;fill-opacity:0.568627;stroke-width:3.87786;stroke-dasharray:none"
       d="m 210.33149,-47.129393 c 0.073,-0.05291 0.14885,-0.03846 0.24292,6.12e-4 0.43118,0.178655 76.69784,48.8725251 77.64197,49.5709908 -0.0296,0.027905 -0.0593,0.055824 -0.0891,0.083341 -0.26869,0.2585555 -0.53608,0.5198737 -0.80298,0.7822062 -0.17852,0.1871944 -0.35823,0.3710381 -0.5336,0.5643286 -0.0288,0.030616 -0.058,0.061072 -0.0869,0.091749 -0.0498,0.054849 -0.0991,0.1108365 -0.14737,0.1686449 -1.08432,0.7930275 -2.37166,1.8233604 -3.4199,2.7811662 -2.24284,2.048074 -5.73957,6.1627353 -9.21887,10.8481113 -1.39704,1.881293 -2.63019,3.510067 -3.79481,5.029899 -0.1632,0.132605 -0.32578,0.265577 -0.48678,0.404875 -0.34043,0.290272 -0.66231,0.619428 -0.98502,0.947421 -0.30656,0.313903 -0.59799,0.65658 -0.88401,1.007591 -0.2435,0.295688 -0.48682,0.592494 -0.7399,0.871402 -0.25233,0.275108 -0.5049,0.55051 -0.76241,0.815692 -0.29277,0.267503 -0.57021,0.568671 -0.84714,0.868381 -0.2758,0.303182 -0.55626,0.597672 -0.83288,0.899299 -0.0683,0.06914 -0.13537,0.14054 -0.20117,0.2143 -0.19883,0.218914 -0.38974,0.452558 -0.58675,0.674862 -0.29174,0.330149 -0.57717,0.671658 -0.86569,1.007487 -0.26239,0.314183 -0.52598,0.626326 -0.78499,0.946246 -0.22539,0.28226 -0.45461,0.55754 -0.68531,0.830819 -0.24532,0.283679 -0.49439,0.560623 -0.74826,0.828404 -0.28036,0.281598 -0.55411,0.576719 -0.82789,0.871197 -0.22877,0.23154 -0.4467,0.485359 -0.66623,0.734756 -0.17305,0.195091 -0.34445,0.392859 -0.51486,0.592646 -0.0247,0.03234 -0.19097,0.217353 -0.27443,0.318071 -0.55512,0.411505 -1.11014,0.79084 -1.67801,1.14738 -6.49385,4.082304 -15.61056,4.019735 -23.27953,-0.160839 -9.02522,-4.919887 -16.81827,-16.301934 -21.5197,-30.6392168 -0.001,-0.00404 -0.002,-0.00796 -0.002,-0.01246 -0.0146,-0.066071 -0.0416,-0.1244683 -0.0651,-0.1854914 -1.63777,-5.03418293 -2.9016,-10.4227478 -3.69408,-16.0313638 -1.68024,-11.89118 -1.30599,-22.92965 1.13183,-33.392284 0.59466,-2.551428 0.79059,-3.320529 1.00983,-3.479754 z" />
    <path
       id="path588-1-2-2-5"
       style="fill:#002800;fill-opacity:0.568627;stroke-width:4.21113;stroke-dasharray:none"
       d="m 272.47462,43.866532 c -0.90185,0.07123 -1.78609,0.164278 -2.67322,0.280603 -10.14723,1.330723 -21.20261,7.152974 -28.22932,14.867842 -8.26934,9.079243 -11.48136,21.787693 -9.30539,34.552968 10e-4,0.0034 0.002,0.0071 0.002,0.0093 0.018,0.05458 0.0189,0.110842 0.0227,0.167432 0.77983,4.473978 2.20968,8.952843 4.33411,13.282923 4.50404,9.18061 11.0374,16.47709 19.76419,22.07206 2.12815,1.36442 2.78994,1.76531 3.14451,1.73478 l 0.002,0.002 c 0.11801,-0.0105 0.20262,-0.0684 0.29559,-0.15451 0.20109,-0.18654 14.88219,-18.32492 30.31084,-37.406029 0.0912,-7.744511 0.0842,-15.489772 -0.20464,-23.230648 -0.3477,-8.359334 -0.82241,-16.711459 -1.44229,-25.053795 -0.0917,-0.0073 -0.18305,-0.01627 -0.27492,-0.02222 -0.45844,-0.02784 -0.91741,-0.05566 -1.37666,-0.07338 -0.50344,0.003 -1.00655,-0.0263 -1.50844,-0.05529 -0.50243,-0.03207 -1.00584,-0.05531 -1.50843,-0.08578 -0.12106,-0.004 -0.24207,-0.01002 -0.36277,-0.0186 -0.3624,-0.0233 -0.72317,-0.06205 -1.08521,-0.08888 -0.5367,-0.04033 -1.07228,-0.0922 -1.60817,-0.138493 -0.49219,-0.04806 -0.98467,-0.09419 -1.47588,-0.148311 -0.42961,-0.04974 -0.85978,-0.09256 -1.29088,-0.132809 -0.45462,-0.03802 -0.91055,-0.06914 -1.36684,-0.09095 -0.49608,-0.01448 -0.99153,-0.04237 -1.48673,-0.06976 -0.40578,-0.01307 -0.81055,-0.04803 -1.21492,-0.07906 -0.3179,-0.02344 -0.6351,-0.04968 -0.9524,-0.07803 -0.0478,-0.0062 -0.35205,-0.02707 -0.50901,-0.04289 z" />
    <path
       id="path588-1-2-3"
       style="fill:#002800;fill-opacity:0.568627;stroke-width:3.24002;stroke-dasharray:none"
       d="m 180.75365,-34.650902 c -0.0503,-0.06462 -0.12318,-0.08775 -0.21987,-0.103288 -0.44317,-0.07119 -83.92289,-1.871264 -84.9848,-1.833139 0.0185,0.0302 0.0371,0.0604 0.0557,0.0906 0.16598,0.27788 0.32999,0.55695 0.49321,0.836473 0.10574,0.194314 0.21342,0.387146 0.31448,0.583964 0.017,0.03163 0.0342,0.06337 0.0513,0.0951 0.0287,0.0559 0.0566,0.112329 0.0831,0.169348 0.74433,0.963437 1.60148,2.163384 2.26448,3.215167 1.41835,2.250052 3.35511,6.339895 5.10613,10.78261 0.70308,1.783874 1.33316,3.338389 1.93373,4.794859 0.10831,0.153187 0.21545,0.306718 0.31965,0.463315 0.22139,0.328535 0.41453,0.673641 0.60864,1.018461 0.18376,0.328974 0.34524,0.669681 0.49935,1.013343 0.13216,0.290568 0.26377,0.581803 0.40959,0.865873 0.14624,0.281383 0.29262,0.563024 0.44654,0.84031 0.1851,0.293819 0.34634,0.602312 0.50749,0.909715 0.15909,0.309117 0.32504,0.614703 0.48537,0.9231654 0.0411,0.07282 0.0805,0.146481 0.11813,0.22113 0.11461,0.223048 0.21766,0.452033 0.32961,0.676446 0.1655,0.332928 0.32193,0.67032 0.48283,1.00546 0.1437,0.310333 0.28913,0.619873 0.42808,0.932359 0.11977,0.274381 0.24508,0.545985 0.37231,0.816963 0.13737,0.283771 0.28013,0.56491 0.42996,0.842298 0.16966,0.297421 0.32933,0.600556 0.48924,0.90328 0.13786,0.243851 0.25939,0.49706 0.38367,0.748166 0.0984,0.197023 0.19452,0.394983 0.28911,0.593849 0.0132,0.03067 0.10796,0.218727 0.15345,0.317906 0.37938,0.49674 0.76873,0.9727761 1.17586,1.4403631 4.65699,5.3482729 12.9207,9.1988509 21.10176,9.8317979 9.62787,0.7448804 20.06626,-3.115868 28.58891,-10.1615919 0.002,-0.002 0.004,-0.0041 0.005,-0.0062 0.0329,-0.03553 0.0747,-0.06095 0.11413,-0.0893 2.98045,-2.4795061 5.72856,-5.3422981 8.11594,-8.5451295 5.06168,-6.790532 8.01128,-13.919341 8.92307,-21.565134 0.22234,-1.864556 0.27433,-2.433718 0.12325,-2.627821 z" />
    <path
       id="path588-1-4"
       style="fill:#002800;fill-opacity:0.568627;stroke-width:3.60424;stroke-dasharray:none"
       d="m -28.631774,39.813791 c -0.06534,0.06269 -0.07458,0.138724 -0.06861,0.236528 0.02761,0.448295 19.2914892,82.483481 19.6103969,83.514341 0.031757,-0.0244 0.06379,-0.0488 0.095458,-0.0732 0.2937222,-0.22007 0.5894226,-0.43842 0.8858901,-0.65608 0.2076675,-0.1442 0.4138487,-0.28911 0.6261129,-0.42883 0.033934,-0.0232 0.067851,-0.0466 0.1022887,-0.0697 0.060243,-0.0398 0.1214447,-0.0787 0.1833592,-0.11676 0.9750647,-0.92809 2.2074315,-2.01563 3.3103329,-2.88251 2.3593946,-1.85451 6.8127084,-4.59803 11.7408861,-7.2331 1.978815,-1.05805 3.6987312,-1.99709 5.3075322,-2.88689 0.157603,-0.1378 0.315958,-0.27441 0.478742,-0.40885 0.340843,-0.28475 0.708992,-0.54533 1.07654,-0.80676 0.351059,-0.24804 0.722293,-0.47641 1.098251,-0.69897 0.317804,-0.18958 0.636501,-0.37883 0.942911,-0.58045 0.303441,-0.20107 0.605991,-0.4035 0.902531,-0.61121 0.308142,-0.24204 0.64012,-0.46383 0.970846,-0.6853 0.333311,-0.21979 0.660631,-0.44552 0.992826,-0.66642 0.07759,-0.0553 0.156851,-0.10882 0.237155,-0.16154 0.240877,-0.15809 0.491128,-0.30691 0.734032,-0.463 0.360187,-0.2313 0.728711,-0.45407 1.093082,-0.68102 0.338755,-0.20499 0.676133,-0.41147 1.018684,-0.61229 0.30136,-0.17413 0.598,-0.35303 0.893338,-0.53373 0.308528,-0.19297 0.61211,-0.39106 0.909023,-0.5956 0.316447,-0.2277 0.642387,-0.44681 0.967765,-0.66607 0.259782,-0.18548 0.534761,-0.35723 0.806962,-0.53077 0.213226,-0.13711 0.427931,-0.27249 0.644442,-0.40622 0.03341,-0.0196 0.237351,-0.150696 0.345186,-0.216336 0.503847,-0.474201 0.980084,-0.953895 1.441527,-1.449225 5.277961,-5.665599 7.816487,-14.548591 6.481266,-22.682861 -1.571352,-9.57279 -8.926073,-18.982444 -19.644145,-25.856977 -0.003,-0.0012 -0.0061,-0.0028 -0.0089,-0.0041 -0.05145,-0.02483 -0.09296,-0.06049 -0.137442,-0.09309 C 11.639456,47.405947 7.4681308,45.311913 2.9778335,43.641355 -6.5423369,40.099449 -15.92948,38.693827 -25.419001,39.388956 c -2.314176,0.169537 -3.016507,0.236815 -3.212662,0.424896 z" />
    <path
       id="path945"
       style="fill:#004000;fill-opacity:0.568627;stroke-width:4.44147"
       d="m 108.27634,1.7041601 c -0.4453,-0.00691 -0.92597,-0.00537 -1.42273,0.00403 -1.98704,0.037578 -4.23233,0.2025197 -5.50467,0.4712242 -6.097961,1.287856 -11.85071,3.6933617 -21.142156,8.8394812 -5.418708,3.001218 -8.421884,4.901444 -11.905962,7.534552 -0.263779,0.199354 -0.51145,0.411676 -0.77178,0.613699 -0.153227,0.141327 -0.316463,0.270403 -0.488341,0.388659 -3.64e-4,4e-4 -7.47e-4,0.0011 -0.0015,0.0015 -7.523254,5.937597 -13.603349,12.998249 -18.253895,21.273053 -3.982816,7.086716 -6.798358,15.525231 -8.108983,24.268549 -0.02647,0.51624 -0.06449,1.032054 -0.120826,1.546078 -0.03585,0.260783 -0.07971,0.51988 -0.128379,0.778325 -0.357816,4.723608 -0.35812,12.964614 0.06998,16.419847 0.691197,5.578646 2.294886,12.373293 4.174563,17.686005 l 0.789904,2.23177 10.61211,-16.409773 C 61.910325,78.326318 76.67928,55.495451 88.892715,36.616535 105.44131,11.036507 111.02546,2.2165033 110.80967,2.000689 110.62961,1.8206035 109.61225,1.7248853 108.27634,1.7041601 Z" />
    <path
       id="path1020"
       style="fill:#005000;fill-opacity:0.568627;stroke-width:6.60473"
       d="m 87.19661,86.478194 v 5.04e-4 c -0.252284,0.0048 -0.483508,0.02796 -0.687202,0.0725 v -0.001 c -0.665109,0.145527 -1.037197,0.52042 -0.893614,1.241998 0.28784,1.446559 11.898327,11.439734 14.996606,15.637995 1.20708,1.63563 2.3027,4.09544 3.0539,6.67014 0.36353,-0.0723 0.73229,-0.12277 1.09952,-0.17016 0.1502,-0.0209 0.29709,-0.0496 0.43951,-0.0947 0.15152,-0.0837 0.29948,-0.17335 0.44152,-0.27237 0.38407,-0.22033 0.77768,-0.43084 1.19417,-0.58349 0.41736,-0.19021 0.83638,-0.39527 1.29234,-0.46871 -2.87618,-8.808158 -7.3094,-16.97764 -13.476708,-20.117139 -0.610759,-0.31091 -5.02131,-1.962261 -7.460042,-1.915607 z m 21.53384,23.940306 c -0.0164,0.004 -0.033,0.008 -0.0493,0.0126 0.0264,0.0408 0.0573,0.0804 0.0881,0.11982 -0.0131,-0.0441 -0.0256,-0.0883 -0.0388,-0.1324 z" />
    <path
       id="path1022"
       style="fill:#005000;fill-opacity:0.568627;stroke-width:6.30587"
       d="m 94.034395,72.64857 c -0.720451,0.01854 -1.230461,0.1799 -1.40008,0.545231 -0.157592,0.339417 5.675152,2.317637 10.251135,5.771489 5.91303,4.462989 17.9114,15.563975 15.68533,24.188 l 1.45344,0.27941 c 0.26946,-0.24327 0.53462,-0.49112 0.82112,-0.71489 0.0973,-0.0722 0.17859,-0.17042 0.28847,-0.22152 0.31249,-0.14523 0.60618,-0.21656 0.83924,-0.13643 0.14328,-0.15981 0.28905,-0.31709 0.45159,-0.45763 0.089,-0.0806 0.1789,-0.16067 0.26985,-0.23964 -2.90129,-10.254961 -8.35496,-20.774628 -18.03389,-26.18164 -0.75629,-0.422493 -7.129905,-2.745838 -10.305008,-2.831876 -0.111128,-0.003 -0.218276,-0.0032 -0.321197,-5.04e-4 z" />
    <path
       id="path1030"
       style="fill:#005000;fill-opacity:0.568627;stroke-width:6.30587"
       d="m 101.47001,58.556266 c -1.15241,0.02184 -1.730948,0.398214 -1.26167,1.336757 0.25753,0.515034 12.21774,2.685175 13.42566,3.350039 8.80317,4.845453 21.18818,21.715731 16.70841,32.272722 l 1.02859,-0.690687 c 0.0285,-0.0759 0.0386,-0.07152 0.18278,-0.247947 0.16001,-0.159602 0.32845,-0.306788 0.50437,-0.448417 0.0628,-0.09868 0.12407,-0.199142 0.17074,-0.306739 0.092,-0.17737 0.18059,-0.356936 0.28335,-0.528468 0.1109,-0.18483 0.22879,-0.36507 0.34783,-0.544762 0.12693,-0.18199 0.26696,-0.353838 0.42575,-0.509343 0.17168,-0.171921 0.34485,-0.342194 0.52776,-0.502256 0.2043,-0.177384 0.4235,-0.337002 0.61631,-0.527053 0.10926,-0.123239 0.21098,-0.253412 0.31525,-0.381121 -3.33259,-12.143756 -9.87994,-20.871958 -20.19659,-28.473558 -0.99874,-0.735899 -9.62131,-3.864681 -13.07854,-3.799167 z" />
    <path
       id="path1032"
       style="fill:#005000;fill-opacity:0.568627;stroke-width:6.30587"
       d="m 109.86571,46.97088 c -2.4393,0.03838 -3.90363,0.607945 -3.4647,1.661368 0.39604,0.950464 35.79555,10.402028 36.26664,28.745178 l 1.09147,-5.876206 C 140.66035,60.170132 132.88294,53.989161 122.1407,49.5606 c -4.39045,-1.810005 -9.13874,-2.63907 -12.27499,-2.58972 z m 32.80194,30.406546 -0.31163,1.678484 c 0.0853,-0.118213 0.16843,-0.237787 0.24971,-0.358956 l 0.0317,0.02114 c 0.0301,-0.451721 0.0416,-0.899283 0.0302,-1.340673 z" />
    <path
       id="path1040"
       style="fill:#005000;fill-opacity:0.568627;stroke-width:6.30587"
       d="m 115.95123,33.489967 c -1.73688,0.01906 -2.79741,0.309735 -2.67069,0.784911 0.49093,1.840933 15.29209,4.582988 19.72126,8.098465 4.43029,3.516389 9.75966,7.933224 11.52926,13.519167 l 0.54262,-1.456477 c -0.0189,-0.203582 -0.0343,-0.407465 -0.0489,-0.611352 -0.0158,-0.198759 -0.0347,-0.397307 -0.0539,-0.595768 -0.018,-0.230054 -0.0352,-0.460122 -0.0631,-0.689275 -0.0448,-0.293486 -0.10505,-0.583797 -0.19976,-0.86567 -0.11583,-0.366943 -0.25491,-0.725392 -0.37899,-1.089523 -0.14236,-0.417649 -0.28137,-0.836743 -0.38538,-1.265918 -0.005,-0.02464 -0.0918,-0.397944 -0.10053,-0.420082 -0.0303,-0.07594 -0.0897,-0.138725 -0.1183,-0.215355 -0.0256,-0.0687 -0.0287,-0.14325 -0.0419,-0.215354 -0.054,-0.297015 -0.0386,-0.183091 -0.0489,-0.49305 0.009,-0.08573 0.0285,-0.170855 0.0298,-0.25715 0.001,-0.08465 -0.0164,-0.168469 -0.0226,-0.252899 -0.0137,-0.181415 -0.032,-0.36258 -0.0467,-0.544054 -5.7423,-5.552872 -11.81183,-10.140649 -19.87493,-12.323383 -2.96295,-0.80209 -5.79989,-1.128821 -7.76835,-1.107233 z" />
    <path
       id="path1054"
       style="fill:#005000;fill-opacity:0.568627;stroke-width:6.61988"
       d="m 114.3501,18.217124 c -1.03687,0.01661 -1.71568,0.213443 -1.25599,0.792421 1.5524,1.955228 10.43087,2.326478 12.99567,4.269715 3.41388,2.586575 6.72638,5.466315 9.80997,8.505861 -0.0703,-0.134021 -0.14102,-0.267789 -0.21325,-0.400506 -0.19154,-0.367022 -0.37082,-0.74084 -0.53413,-1.124227 -0.14616,-0.337447 -0.29039,-0.675967 -0.43211,-1.015706 -0.10177,-0.266173 -0.20585,-0.531044 -0.30604,-0.797888 -0.0517,-0.157945 -0.10218,-0.316095 -0.17143,-0.466084 -0.0343,-0.06226 -0.067,-0.124803 -0.0978,-0.187371 -0.11405,-0.140668 -0.22089,-0.288293 -0.33295,-0.430954 -0.16694,-0.227678 -0.31091,-0.475045 -0.42435,-0.740115 -0.081,-0.211464 -0.13105,-0.436215 -0.19834,-0.653456 -0.0137,-0.04344 -0.027,-0.08718 -0.0405,-0.131164 -4.51487,-2.953484 -9.32275,-5.437469 -14.24316,-7.139612 -0.10472,-0.03621 -2.82762,-0.508627 -4.55573,-0.480918 z m 23.30295,10.791004 c 0.006,0.0086 0.0179,0.018 0.034,0.02654 -0.011,-0.0086 -0.0225,-0.01791 -0.034,-0.02654 z m 2.93348,2.310907 c -0.0433,0.03857 -0.0884,0.07997 -0.13599,0.12414 l 0.22174,-0.05387 c -0.0285,-0.02351 -0.0572,-0.04679 -0.0858,-0.07027 z" />
    <path
       id="path1121"
       style="fill:#002400;fill-opacity:0.568627;stroke-width:6.30587"
       d="m 55.28804,73.472375 c -5.615776,-3.56e-4 -10.500735,1.584102 -15.410603,4.088195 0.02672,0.166165 0.04198,0.333806 0.04039,0.502257 -0.02725,0.448318 0.02638,0.894295 0.05101,1.341007 0.02048,0.436547 0.08631,0.868724 0.134603,1.302754 0.06021,0.518668 0.113533,1.037739 0.14168,1.559197 0.0068,0.109268 0.0111,0.218559 0.01418,0.327989 2.308532,-8.964147 21.043363,-4.618588 23.55228,-7.441067 0.156633,-0.17621 -5.750085,-1.559142 -6.335958,-1.60099 -0.742059,-0.05302 -1.470857,-0.07931 -2.18755,-0.07935 z" />
    <path
       id="path1133"
       style="fill:#002400;fill-opacity:0.568627;stroke-width:6.30587"
       d="m 54.941631,59.10029 c -4.973478,0.01289 -9.413249,1.305228 -14.084474,3.272824 -0.0053,0.039 -0.01124,0.07793 -0.01699,0.116891 0.0033,0.101877 0.0059,0.203953 0.0099,0.30603 -0.03779,0.598597 -0.117166,1.193344 -0.150892,1.79226 -0.02549,0.687111 -0.06888,1.373009 -0.143804,2.056496 -0.06971,0.507028 -0.169604,1.008872 -0.276987,1.508898 3.128797,-2.956104 6.51098,-4.888345 10.713182,-6.050472 3.747213,-1.036296 7.733774,-1.022737 11.568933,-0.631896 0.966562,0.09849 4.619184,1.904114 5.313733,1.533693 0.296197,-0.157967 -3.518297,-2.922194 -8.838038,-3.63269 -1.412024,-0.18859 -2.772398,-0.275448 -4.094571,-0.272028 z" />
    <path
       id="path1139"
       style="fill:#002400;fill-opacity:0.568627;stroke-width:6.30587"
       d="m 57.642063,46.339824 c -4.328394,-0.01395 -8.698591,1.035979 -12.994239,2.769857 -0.05803,0.280967 -0.112093,0.562766 -0.179935,0.841583 -0.07227,0.285349 -0.149466,0.570435 -0.262109,0.843 -0.05309,0.134575 -0.101826,0.269559 -0.136727,0.410164 -0.05727,0.16827 -0.12698,0.331824 -0.196937,0.495175 -0.06012,0.146046 -0.116356,0.294407 -0.160098,0.446294 l 1.212076,0.648189 c 3.030975,-2.176946 6.431709,-3.26201 10.089789,-3.901177 4.813667,-0.841078 9.923903,0.13463 14.474802,1.722128 1.832514,0.639232 5.274801,4.744486 5.099086,2.811652 -0.126966,-1.396549 -2.555265,-2.417094 -3.444255,-3.000087 -4.361785,-2.86039 -8.908134,-4.071976 -13.501458,-4.086778 z" />
    <path
       id="path1141"
       style="fill:#002400;fill-opacity:0.568627;stroke-width:6.30587"
       d="m 69.611245,28.567404 c -4.85974,-0.02235 -10.061672,0.997283 -13.737355,1.688126 -0.05719,0.08874 -0.112505,0.178765 -0.174975,0.262817 -0.09974,0.134206 -0.226642,0.257472 -0.335076,0.385372 -0.19358,0.207977 -0.364409,0.436516 -0.544762,0.655981 -0.21432,0.266552 -0.452894,0.51061 -0.692818,0.753741 -0.207146,0.209078 -0.409782,0.422765 -0.600725,0.646772 -0.202939,0.258484 -0.382262,0.533163 -0.562474,0.807579 -0.119112,0.187524 -0.254224,0.362816 -0.400246,0.528469 l -2.71531,5.624012 c 2.900185,-4.1306 7.691522,-5.938606 12.41689,-7.264674 5.395298,-1.514065 11.237233,-1.192821 16.399535,0.982556 3.132518,1.320029 4.160377,4.659339 4.156909,4.60037 -0.448313,-7.621213 -6.498952,-9.640261 -13.209593,-9.671121 z" />
    <path
       id="path1143"
       style="fill:#002400;fill-opacity:0.568627;stroke-width:6.30587"
       d="m 77.889644,17.188324 c -3.26691,-0.01679 -6.696261,0.683886 -10.006196,1.647038 -0.0672,0.06008 -0.134341,0.119962 -0.199768,0.18135 -0.44677,0.460622 -1.006025,0.80165 -1.588948,1.061897 -0.05317,0.02374 -0.104107,0.04281 -0.152308,0.05738 -0.189512,0.173241 -0.380153,0.345054 -0.571681,0.515718 -0.124459,0.107693 -0.912962,0.791833 -1.021519,0.877003 -0.632823,0.458598 -0.54625,0.387323 -0.840165,0.624813 l 0.773576,1.031434 c 3.307827,-2.986299 7.665268,-3.837459 11.959263,-4.398476 5.456379,-0.712876 9.122614,0.840917 13.332148,4.197288 0.501025,0.399481 1.732278,1.865693 1.399096,1.31834 -3.224334,-5.297016 -7.95229,-7.087413 -13.083498,-7.113787 z m -15.31426,3.399627 c -0.06293,0.02276 -0.127145,0.04525 -0.189853,0.068 l 0.03754,0.04959 c 0.0509,-0.03884 0.101867,-0.07817 0.152306,-0.117591 z" />
    <path
       id="path1149"
       style="fill:#002400;fill-opacity:0.568627;stroke-width:6.30587"
       d="m 81.958712,11.667029 c -2.073953,0.01027 -4.053059,0.366638 -5.649515,1.200036 l 2.44895,-0.510759 C 86.120351,13.018892 91.102918,12.063944 96.1374,16.823497 94.912407,15.356811 95.089918,15.496683 91.793473,13.889291 89.136221,12.593576 85.4153,11.649917 81.958712,11.667029 Z M 96.1374,16.823497 c 0.23139,0.277044 0.49635,0.591287 0.86213,1.007349 0.26589,0.302447 1.1177,1.158592 0.86142,0.847959 -0.57755,-0.700038 -1.15092,-1.313951 -1.72355,-1.855308 z" />
    <path
       id="path1151"
       style="fill:#002400;fill-opacity:0.568627;stroke-width:6.30587"
       d="m 92.892916,4.6184159 c -0.238129,0.1110797 -0.48121,0.2114178 -0.729655,0.296822 -0.478147,0.1822247 -0.953369,0.3809697 -1.451519,0.5022572 -0.02638,0.00416 -0.0529,0.00769 -0.07935,0.01138 -4.88e-4,1.985e-4 -9.3e-4,5.102e-4 -0.0014,7.088e-4 -0.05118,0.020827 -0.102868,0.040983 -0.154431,0.060924 -0.162428,0.067052 -0.324298,0.1363579 -0.484549,0.2082706 1.330553,-0.046139 2.663522,0.036029 4.048525,0.253608 C 95.97009,6.2555133 97.52634,6.8803807 98.7585,7.6100494 97.17749,6.0817664 95.64393,5.0865866 92.892893,4.6184608 Z M 98.75849,7.610004 c 1.12144,1.0840525 2.26734,2.435973 3.89126,4.059859 0.23449,0.234488 -0.81725,-2.2394824 -3.89126,-4.059859 z" />
    <path
       id="path2392"
       style="fill:#001800;fill-opacity:0.568627;stroke-width:6.30587"
       d="m 164.09735,5.5563425 c -4.95135,0.035816 -9.93448,0.9243293 -13.59566,3.4903021 l 74.04443,43.5476714 c -0.006,-0.04297 -0.011,-0.08626 -0.0149,-0.12964 -0.008,-0.121127 -0.011,-0.242686 0.011,-0.362703 0.011,-0.06829 0.0237,-0.136481 0.0347,-0.204729 -0.0163,-0.07334 -0.0332,-0.146293 -0.0467,-0.220313 -0.099,-0.03509 -0.0989,-0.02687 -0.0255,-0.13034 9.8e-4,-0.0014 0.001,-0.0029 0.003,-0.0043 -0.0373,-0.246128 -0.0552,-0.494465 -0.0651,-0.743115 -0.005,-0.140335 -0.005,-0.280442 -0.001,-0.420792 -1e-4,-4.5e-4 9e-5,-10e-4 0,-0.0014 -0.0409,-0.192316 -0.0775,-0.385535 -0.095,-0.581598 -0.0136,-0.168966 -0.0221,-0.338418 -0.0124,-0.507925 0.001,-0.02908 0.008,-0.215751 0.0184,-0.216773 0.0605,-0.0061 0.12584,-0.01695 0.19339,-0.03046 -8.04393,-22.455993 -26.0285,-38.312487 -50.76269,-42.6238701 -2.92463,-0.5097866 -6.29751,-0.8845101 -9.6853,-0.8600016 z" />
    <path
       id="path2400"
       style="fill:#004000;fill-opacity:0.568627;stroke-width:6.30587"
       d="m 149.53472,10.407488 c -3.3091,9.207333 -1.49748,19.786376 -0.877,29.372522 3.07524,47.511649 34.31349,66.81864 75.46193,46.842454 -0.004,-0.183502 0.004,-0.361324 0.0617,-0.539805 0.0299,-0.113944 0.0591,-0.22841 0.0921,-0.34145 0.0222,-0.09902 0.0466,-0.198279 0.0821,-0.293279 0.006,-0.05063 0.0156,-0.103198 0.0311,-0.151597 -0.0122,-0.126173 -0.0207,-0.252819 -0.0454,-0.377579 -0.0325,-0.186743 -0.0627,-0.375131 -0.0623,-0.565306 6.8e-4,-0.13112 0.004,-0.261788 0.0156,-0.392456 0.006,-0.118934 0.015,-0.237969 0.0291,-0.356327 0.0124,-0.106444 0.0356,-0.210791 0.0411,-0.318073 0.0153,-0.133644 0.0361,-0.266829 0.0581,-0.399539 0.0175,-0.135686 0.0446,-0.269956 0.0588,-0.405915 0.009,-0.07769 0.018,-0.154502 0.011,-0.233065 -0.008,-0.08781 -0.0144,-0.17603 -0.0327,-0.262817 -0.0217,-0.135151 -0.0463,-0.269914 -0.0623,-0.405916 -0.0237,-0.194958 -0.0404,-0.390671 -0.0545,-0.586558 -0.0163,-0.217202 -0.0314,-0.434521 -0.0318,-0.652438 0.003,-0.171943 0.006,-0.343978 0.0156,-0.515717 0.006,-0.115056 0.0144,-0.230505 0.0333,-0.344284 0.0124,-0.137016 0.0124,-0.275093 0.0353,-0.410874 0.009,-0.05924 0.0565,-0.384484 0.11474,-0.395999 0.0372,-0.0074 0.069,-0.01462 0.10419,-0.02195 -0.006,-0.05041 -0.0123,-0.100501 -0.0198,-0.15089 -0.0296,-0.213592 -0.0599,-0.428277 -0.0503,-0.644647 0.004,-0.133739 0.0136,-0.266573 0.034,-0.398831 0.005,-0.05734 0.004,-0.114905 0.011,-0.172143 -3.3e-4,-0.0096 -0.001,-0.01887 -0.001,-0.02833 z m 74.9873,69.07427 c 0.0208,0.05413 0.0284,0.130545 0.0765,0.138849 -0.0252,-0.04646 -0.0495,-0.09348 -0.0765,-0.138849 z m 3.72124,1.030728 c -0.004,0.0012 -0.008,0.0035 -0.0122,0.0049 0.009,0.0029 0.0189,0.0053 0.0283,0.0085 z" />
    <path
       style="fill:#002400;fill-opacity:0.568627;stroke-width:6.30587"
       d="m 150.78917,16.484391 c -0.29894,16.818524 1.31839,42.647326 13.86272,55.706926 10.62691,11.0634 23.50986,18.824177 39.30552,14.875338 3.90939,-0.97733 7.6453,-3.138124 11.45907,-4.48981 1.2068,-0.42772 7.37452,-3.900157 6.37958,-3.870009 -6.61162,0.200349 -12.82183,3.073486 -19.8644,2.872273 C 165.34012,80.533655 152.89846,46.01405 150.60775,13.9447"
       id="path2424" />
    <path
       style="fill:#002400;fill-opacity:0.568627;stroke-width:6.30587"
       d="m 154.47782,18.071698 c 1.2693,10.400239 3.68693,21.178844 8.23905,30.703057 6.10628,12.776023 18.14532,22.521823 32.51773,23.58285 1.12243,0.08286 16.53856,0.621934 16.53856,-1.466369 0,-0.922555 -9.41323,-0.809552 -10.20431,-0.952383 C 194.9787,68.748992 187.10577,65.720599 181.40209,62.213957 168.45128,54.251762 155.7405,30.698216 154.23594,15.652944"
       id="path2426" />
    <path
       style="fill:#002400;fill-opacity:0.568627;stroke-width:6.30587"
       d="m 164.44025,28.714216 c 2.0858,9.081932 5.3883,17.803061 12.98595,23.703788 4.95487,3.848221 8.70227,5.236883 14.58838,7.392318 2.65435,0.971996 5.73421,1.285399 8.52627,1.723362 0.50935,0.07989 1.78461,0.575851 1.54199,0.120935 -2.35072,-4.407512 -16.90998,-7.229649 -21.25521,-9.538957 -8.4499,-4.490767 -15.30161,-20.61521 -18.17125,-28.616883"
       id="path2428" />
    <path
       style="fill:#004c00;fill-opacity:0.568627;stroke-width:5.27083"
       d="m 167.70389,10.450084 c 12.65071,3.902098 27.76356,10.361518 37.50504,19.621476 3.52488,3.350639 5.84163,6.532035 8.74716,10.078089 1.07066,1.306725 3.67543,5.234393 2.32206,4.03648 -2.55714,-2.263402 -3.99603,-5.085844 -6.4311,-7.406099 C 197.55997,25.072305 181.93618,17.563542 165.80577,10.956488"
       id="path2578" />
    <path
       style="fill:#003400;fill-opacity:0.568627;stroke-width:4.08583"
       d="M 187.55966,30.742621 C 167.31388,18.826878 150.78683,9.0131985 150.8329,8.9344462 c 0.2129,-0.3638816 3.7143,-1.8720848 5.32658,-2.29438 6.68286,-1.7504076 16.49903,-1.012775 26.37855,1.9822079 7.54017,2.2857999 15.37094,6.3984869 21.50387,11.2937139 2.56774,2.049529 7.44461,6.927029 9.48874,9.489946 3.6763,4.609339 7.03288,10.256434 9.28709,15.624521 1.22673,2.92129 1.39805,3.526244 1.5151,5.350057 0.0727,1.130983 0.11077,2.049752 0.0847,2.041713 -0.0261,-0.0081 -16.61205,-9.763859 -36.85785,-21.679604 z m 29.17275,13.477974 c 0,-0.405429 -2.44053,-3.819028 -5.04706,-7.059354 -3.27251,-4.068279 -8.01532,-8.796926 -11.20875,-11.175305 -7.5065,-5.590629 -17.83859,-10.690857 -29.49567,-14.559951 -3.2244,-1.070206 -3.36418,-1.095395 -4.31686,-0.777835 l -0.98456,0.328188 2.43679,1.027263 c 17.93003,7.55865 29.27788,14.056678 38.62822,22.119364 2.59847,2.240624 4.32693,4.025726 6.12765,6.328405 2.39344,3.060649 3.86024,4.492863 3.86024,3.769225 z"
       id="path2894" />
    <path
       style="fill:#005400;fill-opacity:0.568627;stroke-width:4.08583"
       d="m 215.40193,43.20921 c -0.39095,-0.418145 -1.55897,-1.817804 -2.59554,-3.110354 -7.48402,-9.331897 -21.93586,-18.628437 -42.58655,-27.394932 -4.02243,-1.707578 -4.07857,-1.741204 -3.23834,-1.939913 0.97475,-0.230523 2.73573,0.289916 9.21181,2.722461 13.32888,5.006596 23.72233,11.215935 30.43565,18.183114 3.52593,3.659269 9.95558,11.828102 9.59424,12.189442 -0.0608,0.06074 -0.43032,-0.231677 -0.82127,-0.649818 z"
       id="path3172" />
    <path
       style="fill:#002400;fill-opacity:0.568627;stroke-width:4.08583"
       d="M 209.32962,43.457193 C 191.61792,33.040677 155.2625,11.566532 152.87625,10.111738 c -0.93293,-0.5687586 -1.66448,-1.1398596 -1.62566,-1.2691152 0.15113,-0.5034624 4.98801,-2.2023324 7.3952,-2.5974299 3.30224,-0.5420092 10.63608,-0.3704556 14.82218,0.3467229 11.06612,1.8958814 20.95243,6.1418462 29.72476,12.7661622 1.04869,0.791909 3.60908,3.138692 5.68977,5.215073 5.33636,5.325359 8.71123,10.020391 12.21808,16.997561 2.18198,4.34124 3.19818,7.358939 3.10418,9.218119 l -0.0695,1.375749 z m 7.40279,0.66364 c 0,-0.393916 -2.0723,-3.319743 -4.73709,-6.68811 -2.7188,-3.436674 -8.8766,-9.550196 -11.82249,-11.737457 -6.93328,-5.147848 -17.38183,-10.343431 -27.87894,-13.862929 -4.46387,-1.496662 -4.66319,-1.541111 -5.62213,-1.253808 -0.5468,0.163824 -0.90186,0.383583 -0.78901,0.488353 0.11281,0.104768 1.47422,0.7206 3.02528,1.368514 7.2807,3.041319 16.41365,7.477595 22.09085,10.730515 3.46004,1.982514 9.96877,6.382637 12.92373,8.736865 3.19813,2.54796 6.50303,5.723558 8.52983,8.19608 1.78555,2.178202 3.82927,4.347669 4.09569,4.347669 0.10136,0 0.18428,-0.14656 0.18428,-0.325692 z"
       id="path3657" />
    <path
       style="fill:#002c00;fill-opacity:0.568627;stroke-width:4.08583"
       d="M 221.19757,50.340575 C 219.71115,49.462779 207.54941,42.292341 194.17152,34.406269 160.15578,14.354492 152.28565,9.6808806 151.79552,9.2416286 c -0.40106,-0.3594374 -0.40258,-0.400275 -0.025,-0.6763323 0.59675,-0.4363644 5.16676,-1.8949035 6.86727,-2.1917244 1.89506,-0.3307824 9.73377,-0.3210027 12.56238,0.015671 8.61647,1.0255716 18.17598,4.3386411 25.90899,8.9793591 4.44286,2.666227 7.11489,4.79568 11.40672,9.090506 5.87183,5.875914 8.87816,10.012416 12.47054,17.158675 2.10955,4.196455 3.07622,7.090604 2.98354,8.932562 l -0.0698,1.386212 z m -4.46516,-6.231706 c 0,-0.185715 -0.49071,-1.058186 -1.09046,-1.938828 -4.36007,-6.402138 -11.6649,-13.964523 -17.16227,-17.767395 -6.71481,-4.645053 -16.57955,-9.4053 -26.18664,-12.636421 -4.33744,-1.458795 -5.11766,-1.593438 -6.08762,-1.050555 -0.67453,0.377534 -1.40009,-0.0062 6.93278,3.66596 5.89919,2.599637 15.05893,7.208977 18.82993,9.475552 4.01882,2.415532 9.98859,6.56508 12.8963,8.96413 2.33573,1.927113 5.39281,4.979664 9.35785,9.343964 2.04144,2.247001 2.51013,2.609901 2.51013,1.943593 z"
       id="path3797" />
    <path
       style="fill:#004400;fill-opacity:0.568627;stroke-width:4.08583"
       d="m 187.82627,93.91481 c -20.06012,-2.742727 -33.69683,-18.623111 -37.93851,-44.180577 -0.55262,-3.329622 -0.78802,-5.590078 -1.40725,-13.51303 -0.82497,-10.55523 -0.92019,-13.093343 -0.62606,-16.685657 0.23822,-2.909537 1.13923,-7.747787 1.59382,-8.558658 0.14146,-0.252325 9.59177,8.036399 37.57692,32.958162 l 37.38792,33.29527 -0.081,3.877651 c -0.11186,5.351544 -0.0957,5.286483 -1.49213,5.994112 -6.16275,3.122901 -16.45964,6.179285 -23.31269,6.91981 -3.0247,0.326849 -8.92199,0.272875 -11.70097,-0.107088 z m 12.87131,-6.123871 c 3.13741,-0.465859 5.3135,-1.150452 10.1596,-3.196173 6.39709,-2.70045 11.04543,-5.153168 11.04543,-5.828158 0,-0.392781 -2.56011,-0.04274 -8.69535,1.188957 -7.12133,1.429642 -9.50591,1.671577 -13.51303,1.370985 -6.94288,-0.520809 -12.22556,-1.915304 -17.74471,-4.684166 -13.45651,-6.750923 -22.7581,-20.310111 -27.80943,-40.538685 -1.46792,-5.878326 -2.42725,-11.745436 -3.28549,-20.093293 -0.2069,-2.012274 -0.13504,10.385009 0.0797,13.752053 1.21837,19.103324 5.18481,32.355796 12.2291,40.859144 1.86238,2.248132 5.54377,5.791368 8.32966,8.017073 6.634,5.300044 13.64071,8.507951 20.44581,9.360791 1.85563,0.232554 6.53905,0.121045 8.75864,-0.208528 z m 8.27719,-15.626109 c 1.80095,-0.295966 2.67169,-0.6705 2.7722,-1.192414 0.10816,-0.561834 -0.5105,-0.662769 -5.7075,-0.931138 -5.35814,-0.276686 -8.35863,-0.879632 -13.51301,-2.715411 -4.05328,-1.443606 -10.47577,-4.675104 -12.95329,-6.517486 -5.65471,-4.205067 -11.19938,-10.940926 -16.07996,-19.534479 -4.19005,-7.377686 -7.52167,-16.013132 -8.68525,-22.511812 -0.22661,-1.265559 -0.45965,-2.253368 -0.51788,-2.195134 -0.18441,0.184409 0.85776,7.155894 1.70851,11.428924 2.19973,11.048552 5.55303,20.006247 9.93842,26.548517 6.96715,10.393837 17.50742,16.876021 29.05703,17.869866 2.90827,0.250259 11.91829,0.0895 13.98073,-0.249433 z m -6.81294,-10.562889 c 0,-0.129395 -0.4477,-0.669749 -0.99488,-1.200774 -1.54427,-1.498661 -5.45419,-3.237913 -12.64441,-5.624612 -3.5497,-1.178275 -7.08163,-2.47627 -7.84873,-2.88443 -1.69163,-0.900079 -4.7329,-3.731167 -6.53338,-6.081875 -3.23167,-4.219215 -7.06337,-11.344892 -9.70573,-18.04938 -1.61404,-4.09528 -2.06943,-4.784096 -0.92472,-1.398724 0.4568,1.350946 1.08722,3.463175 1.40095,4.693841 3.34295,13.113743 9.15984,20.797198 19.49896,25.755881 3.41379,1.637264 8.50095,3.491504 10.83209,3.948226 5.14955,1.00891 6.91985,1.224281 6.91985,0.841847 z"
       id="path3880" />
    <path
       style="fill:#002800;fill-opacity:0.568627;stroke-width:3.1565;stroke-dasharray:none"
       d="m 41.639828,182.97501 8.007657,-18.818"
       id="path30222" />
  </g>
  <g
     id="layer2" />
</svg>
