<?xml version="1.0" encoding="UTF-8" standalone="no"?>
<!-- Created with Inkscape (http://www.inkscape.org/) -->

<svg
   width="199"
   height="47"
   viewBox="0 0 52.652233 12.435414"
   version="1.1"
   id="svg5"
   inkscape:version="1.2.2 (732a01da63, 2022-12-09)"
   sodipodi:docname="plantealogo.svg"
   xmlns:inkscape="http://www.inkscape.org/namespaces/inkscape"
   xmlns:sodipodi="http://sodipodi.sourceforge.net/DTD/sodipodi-0.dtd"
   xmlns="http://www.w3.org/2000/svg"
   xmlns:svg="http://www.w3.org/2000/svg">
  <sodipodi:namedview
     id="namedview7"
     pagecolor="#505050"
     bordercolor="#eeeeee"
     borderopacity="1"
     inkscape:showpageshadow="0"
     inkscape:pageopacity="0"
     inkscape:pagecheckerboard="0"
     inkscape:deskcolor="#505050"
     inkscape:document-units="mm"
     showgrid="false"
     inkscape:zoom="3.2282942"
     inkscape:cx="102.37605"
     inkscape:cy="25.245531"
     inkscape:window-width="1368"
     inkscape:window-height="842"
     inkscape:window-x="-6"
     inkscape:window-y="-6"
     inkscape:window-maximized="1"
     inkscape:current-layer="layer1" />
  <defs
     id="defs2" />
  <g
     inkscape:label="Layer 1"
     inkscape:groupmode="layer"
     id="layer1">
    <path
       id="text2968"
       style="font-style:normal;font-variant:normal;font-weight:bold;font-stretch:normal;font-size:9.87781px;font-family:'Bell MT';-inkscape-font-specification:'Bell MT, Bold';font-variant-ligatures:normal;font-variant-caps:normal;font-variant-numeric:normal;font-variant-east-asian:normal;fill:#1d1106;fill-opacity:1;stroke-width:4.60001"
       d="m 18.845415,3.0008399 c -0.78778,1.9163961 -1.381028,3.4371249 -1.779741,4.5625252 -0.176849,0.501607 -0.329238,0.8667312 -0.457855,1.0950267 -0.125402,0.2282955 -0.24311,0.3826364 -0.352434,0.4630222 -0.109325,0.080386 -0.260278,0.1479099 -0.453204,0.2025722 -0.07717,0.022508 -0.115755,0.068787 -0.115755,0.1395267 0,0.096463 0.05931,0.1446945 0.178284,0.1446945 0.03858,0 0.08682,-0.00482 0.144694,-0.014469 0.228296,-0.032154 0.469453,-0.048059 0.723472,-0.048059 0.128618,0 0.334578,0.011082 0.617535,0.03359 0.21865,0.016077 0.353698,0.024288 0.405145,0.024288 0.131832,0 0.197921,-0.043408 0.197921,-0.130225 0,-0.086817 -0.06126,-0.1364836 -0.183452,-0.1493453 -0.160771,-0.016077 -0.310289,-0.07252 -0.448552,-0.1689824 -0.138264,-0.099678 -0.207224,-0.2381143 -0.207224,-0.414963 0,-0.247588 0.139872,-0.7520669 0.419614,-1.5141237 0.360128,-0.00322 0.863172,-0.00517 1.509473,-0.00517 0.115756,0 0.278307,0.00195 0.48731,0.00517 0.131833,0.2829578 0.255283,0.5978982 0.371038,0.9451646 0.115756,0.344051 0.173633,0.5803855 0.173633,0.7090027 0,0.2733115 -0.197749,0.4276524 -0.593247,0.4630221 -0.102893,0.00965 -0.153996,0.049667 -0.153996,0.1204064 0,0.093248 0.07378,0.1400436 0.221693,0.1400436 0.0836,0 0.25867,-0.00965 0.52555,-0.028939 0.356913,-0.025723 0.646302,-0.038757 0.868167,-0.038757 0.228296,0 0.509991,0.014469 0.844395,0.043408 0.282958,0.022508 0.458027,0.034107 0.525551,0.034107 0.125402,0 0.188103,-0.050184 0.188103,-0.1498621 0,-0.070739 -0.04823,-0.1121956 -0.144695,-0.1250573 C 22.064234,9.296655 21.85058,9.1808993 21.715532,8.991189 21.580484,8.7982632 21.334503,8.2484237 20.977591,7.3416726 20.202672,5.3673988 19.602649,3.9204528 19.178212,3.0008399 Z m 28.292927,0 c -0.78778,1.9163961 -1.381028,3.4371249 -1.779741,4.5625252 -0.176849,0.501607 -0.329754,0.8667312 -0.458372,1.0950267 -0.125401,0.2282955 -0.242593,0.3826364 -0.351917,0.4630222 -0.109325,0.080386 -0.260795,0.1479099 -0.453721,0.2025722 -0.07717,0.022508 -0.115755,0.068787 -0.115755,0.1395267 0,0.096463 0.05983,0.1446945 0.178801,0.1446945 0.03858,0 0.08682,-0.00482 0.144694,-0.014469 0.228296,-0.032154 0.469454,-0.048059 0.723472,-0.048059 0.128618,0 0.334061,0.011082 0.617019,0.03359 0.218649,0.016077 0.353697,0.024288 0.405144,0.024288 0.131833,0 0.197921,-0.043408 0.197921,-0.130225 0,-0.086817 -0.06127,-0.1364836 -0.183451,-0.1493453 -0.160772,-0.016077 -0.31029,-0.07252 -0.448553,-0.1689824 -0.138264,-0.099678 -0.207223,-0.2381143 -0.207223,-0.414963 0,-0.247588 0.139871,-0.7520669 0.419614,-1.5141237 0.360128,-0.00322 0.863171,-0.00517 1.509473,-0.00517 0.115755,0 0.278307,0.00195 0.48731,0.00517 0.131832,0.2829578 0.255799,0.5978982 0.371554,0.9451646 0.115756,0.344051 0.173634,0.5803855 0.173634,0.7090027 0,0.2733115 -0.19775,0.4276524 -0.593248,0.4630221 -0.102893,0.00965 -0.154513,0.049667 -0.154513,0.1204064 0,0.093248 0.07378,0.1400436 0.221693,0.1400436 0.0836,0 0.259187,-0.00965 0.526068,-0.028939 0.356912,-0.025723 0.646301,-0.038757 0.868166,-0.038757 0.228296,0 0.509474,0.014469 0.843879,0.043408 0.282957,0.022508 0.458026,0.034107 0.52555,0.034107 0.125402,0 0.188103,-0.050184 0.188103,-0.1498621 0,-0.070739 -0.04823,-0.1121956 -0.144694,-0.1250573 C 50.356645,9.296655 50.14299,9.1808993 50.007942,8.991189 49.872894,8.7982632 49.626914,8.2484237 49.270001,7.3416726 48.495082,5.3673988 47.895576,3.9204528 47.471139,3.0008399 Z M 6.4068623,3.1165955 4.4390182,3.1455344 c -0.2379418,0 -0.4472897,-0.00482 -0.6273537,-0.014469 l -0.1250573,-0.00517 c -0.1993567,0 -0.2992074,0.053055 -0.2992074,0.1591638 0,0.090032 0.056442,0.1353927 0.1689824,0.1353927 0.2508035,0 0.4258725,0.062701 0.5255508,0.1881027 0.099678,0.1221863 0.1493453,0.2861736 0.1493453,0.4919611 l 0.00517,1.5192914 c 0,0.546623 -0.00195,1.1798916 -0.00517,1.9001478 -0.00322,0.7170408 -0.022508,1.1593354 -0.057878,1.3265378 -0.032154,0.1639869 -0.085209,0.2797426 -0.1591638,0.3472666 -0.073955,0.064309 -0.1993569,0.1091524 -0.3762055,0.1348759 -0.1768487,0.025723 -0.2651009,0.073955 -0.2651009,0.1446944 0,0.090032 0.051619,0.1348759 0.154513,0.1348759 0.1189709,0 0.3085093,-0.00965 0.5689591,-0.028939 0.3151121,-0.022508 0.5625284,-0.03359 0.7425925,-0.03359 0.1639869,0 0.4519406,0.011082 0.8635156,0.03359 0.3054658,0.019293 0.4998274,0.028939 0.5834286,0.028939 0.1864949,0 0.2800871,-0.041456 0.2800871,-0.1250574 0,-0.057878 -0.019293,-0.096463 -0.057878,-0.1157555 C 6.4695632,9.3448865 6.3759711,9.3318525 6.2280613,9.3286371 6.0061967,9.3222062 5.840774,9.2628929 5.7314494,9.1503529 5.6221248,9.0345974 5.5676346,8.7837934 5.5676346,8.3979419 l 0.00465,-1.8329683 c 0.3151121,0.012862 0.5837733,0.01912 0.8056379,0.01912 0.958198,0 1.647909,-0.1605995 2.0691302,-0.4821424 C 8.8714903,5.7771931 9.0837091,5.3479324 9.0837091,4.8141711 9.0837091,4.2804098 8.8859598,3.8641831 8.490462,3.5651482 8.0981796,3.2661132 7.4036455,3.1165955 6.4068623,3.1165955 Z m 30.3951307,0.00465 c -0.167203,0 -0.380857,0.00626 -0.641307,0.01912 -0.729902,0.03537 -1.398885,0.053227 -2.006601,0.053227 -0.800642,0 -2.03537,-0.02268 -3.704177,-0.067696 -0.05145,0.2604498 -0.09773,0.5884242 -0.139527,0.983922 -0.03859,0.3922824 -0.05788,0.6030657 -0.05788,0.6320046 0,0.096463 0.05449,0.1446944 0.163815,0.1446944 0.07074,0 0.13344,-0.061265 0.188102,-0.1834518 0.138264,-0.3086813 0.316721,-0.5594853 0.53537,-0.752411 0.218649,-0.1961412 0.445337,-0.3147678 0.680064,-0.3565684 0.237941,-0.045016 0.622358,-0.067696 1.152904,-0.067696 0.0836,0.8585197 0.125057,1.9712326 0.125057,3.3377902 0,0.8649506 -0.01734,1.4273073 -0.05271,1.6877571 -0.03215,0.2572343 -0.120923,0.4453373 -0.265617,0.5643082 -0.144695,0.1189709 -0.359784,0.178801 -0.645958,0.178801 -0.122186,0 -0.183451,0.046279 -0.183451,0.1395268 0,0.064308 0.03715,0.104846 0.111104,0.1209231 0.151125,0.00643 0.250459,0.0093 0.298691,0.0093 l 0.607716,-0.023771 c 0.167203,-0.00643 0.639872,-0.00982 1.418006,-0.00982 l 0.998391,0.024288 0.135393,0.00465 c 0.109325,0 0.163815,-0.044844 0.163815,-0.1348758 0,-0.080386 -0.0627,-0.1257464 -0.188103,-0.1353927 -0.369774,-0.025723 -0.604674,-0.072003 -0.704352,-0.1395267 -0.09968,-0.067524 -0.170073,-0.1736334 -0.211874,-0.3183278 -0.0418,-0.1446943 -0.07751,-0.5676963 -0.106454,-1.26866 -0.02894,-0.7041791 -0.04341,-1.4339107 -0.04341,-2.1895366 0,-0.7395488 0.02607,-1.355477 0.07751,-1.8474377 0.581993,0 0.998219,0.030374 1.249023,0.091467 0.254019,0.061093 0.475884,0.1850597 0.665594,0.3715546 0.192926,0.1864949 0.350655,0.4097954 0.472841,0.6702452 0.07395,0.1543407 0.151125,0.2315111 0.231511,0.2315111 0.106109,0 0.159164,-0.062701 0.159164,-0.1881027 l -0.07235,-0.7617128 c -0.03537,-0.411575 -0.06431,-0.6836238 -0.08682,-0.8154564 -0.151125,-0.00322 -0.259187,-0.00465 -0.323495,-0.00465 z M 22.85345,3.1357158 c -0.131832,0 -0.197404,0.053055 -0.197404,0.1591639 0,0.07717 0.0627,0.1268373 0.188103,0.1493453 0.30225,0.057878 0.559313,0.2363344 0.771531,0.5353694 0.215434,0.2990349 0.331189,0.6337847 0.347267,1.0035591 0.01929,0.3697744 0.02894,1.3840721 0.02894,3.0432338 0,0.3826361 -0.0468,0.6850593 -0.140043,0.9069239 -0.09003,0.2218647 -0.31672,0.3472667 -0.680064,0.3762055 -0.202572,0.016077 -0.303858,0.062356 -0.303858,0.1395268 0,0.1061092 0.0627,0.1591639 0.188103,0.1591639 0.05788,0 0.15434,-0.00769 0.289388,-0.023771 0.215434,-0.028939 0.562701,-0.043408 1.0418,-0.043408 0.299035,0 0.545016,0.012517 0.737942,0.038241 0.11254,0.012862 0.206132,0.019637 0.280087,0.019637 0.115755,0 0.173633,-0.048232 0.173633,-0.1446944 0,-0.083601 -0.05501,-0.1255741 -0.164331,-0.1255741 -0.170418,0 -0.361392,-0.059313 -0.57361,-0.1782842 -0.209003,-0.1221864 -0.334405,-0.3170647 -0.376206,-0.5839454 -0.03858,-0.2700961 -0.05788,-0.6414789 -0.05788,-1.114147 0,-1.5305445 0.0029,-2.3388821 0.0093,-2.4256987 0.321543,0.389067 0.879593,1.0319819 1.673805,1.9290868 0.797426,0.8938894 1.396933,1.5546614 1.798861,1.9823135 0.405144,0.4244367 0.627009,0.6463018 0.665595,0.6655944 0.03858,0.019293 0.07235,0.028939 0.101286,0.028939 0.109324,0 0.164331,-0.088252 0.164331,-0.2651009 L 28.853618,7.3127337 28.82933,4.58266 c 0,-0.4437292 0.08682,-0.7413293 0.26045,-0.8924545 0.176849,-0.1511252 0.366904,-0.2359897 0.569476,-0.2552823 0.163987,-0.016077 0.24598,-0.069132 0.24598,-0.1591639 0,-0.093247 -0.06126,-0.1400435 -0.183451,-0.1400435 -0.06752,0 -0.149518,0.00482 -0.245981,0.01447 -0.231511,0.025723 -0.569132,0.038757 -1.012861,0.038757 -0.353697,0 -0.622358,-0.011599 -0.805638,-0.034107 -0.09646,-0.012862 -0.175069,-0.01912 -0.236162,-0.01912 -0.109324,0 -0.163815,0.046796 -0.163815,0.1400435 0,0.086817 0.05931,0.1364836 0.178285,0.1493454 0.221864,0.019293 0.416226,0.085381 0.583428,0.1979213 0.167203,0.11254 0.2767,0.2668809 0.328147,0.4630221 0.05145,0.1929258 0.077,0.5141248 0.077,0.964285 l -0.0047,1.9099663 c 0,0.064309 -0.0014,0.2061323 -0.0047,0.4247815 -1.028938,-1.0578763 -2.313849,-2.4633662 -3.854039,-4.2157753 -0.360129,-0.00965 -0.748852,-0.014469 -1.166858,-0.014469 -0.192925,0 -0.326538,-0.00287 -0.400493,-0.0093 -0.06109,-0.00643 -0.107889,-0.00982 -0.140044,-0.00982 z m -12.9449827,0.00465 c -0.1575561,0 -0.2366787,0.048231 -0.2366787,0.1446944 0,0.096463 0.069476,0.1480821 0.2077398,0.154513 0.1961416,0.00965 0.3470946,0.056442 0.4532036,0.1400435 0.109325,0.080386 0.192754,0.2106109 0.250631,0.390675 0.05788,0.1768486 0.08682,0.4628501 0.08682,0.858348 0,0.9903523 -0.0029,1.8454859 -0.0093,2.5657421 -0.0064,0.7170408 -0.0325,1.1641586 -0.07752,1.3410072 -0.0418,0.1736332 -0.115583,0.3052938 -0.221692,0.3953259 -0.106109,0.086817 -0.259015,0.1446944 -0.4583714,0.1736333 -0.1254017,0.019293 -0.2040076,0.038585 -0.2361619,0.057878 -0.032154,0.016077 -0.048059,0.046968 -0.048059,0.091984 0,0.096463 0.060749,0.1446944 0.1829351,0.1446944 0.041801,0 0.1078893,-0.00339 0.1979213,-0.00982 0.3697742,-0.03537 0.8506542,-0.053227 1.4422932,-0.053227 1.697747,0 2.948379,0.021245 3.752237,0.063045 0.221864,-1.1414775 0.332797,-1.816719 0.332797,-2.0257219 0,-0.093248 -0.04341,-0.1400436 -0.130225,-0.1400436 -0.05788,0 -0.11432,0.051619 -0.168983,0.154513 -0.26688,0.5080379 -0.517684,0.8697744 -0.752411,1.0852082 -0.231511,0.2154338 -0.475539,0.3649515 -0.732774,0.4485527 -0.257234,0.080386 -0.649862,0.1204064 -1.177192,0.1204064 -0.215434,0 -0.361564,-0.041973 -0.438734,-0.1255741 -0.07717,-0.086817 -0.117191,-0.3549609 -0.120407,-0.8051211 v -2.927995 c 0,-0.6945327 0.01447,-1.1411338 0.04341,-1.3404904 0.03215,-0.1993567 0.09147,-0.3392281 0.178284,-0.4196138 0.09003,-0.080386 0.242937,-0.1353927 0.458371,-0.1643316 0.173633,-0.025723 0.281178,-0.047887 0.322979,-0.067179 0.04502,-0.022508 0.0677,-0.059658 0.0677,-0.1111047 0,-0.093247 -0.06752,-0.1400435 -0.202572,-0.1400435 -0.05788,0 -0.167375,0.00339 -0.328146,0.00982 -0.44373,0.022508 -0.789561,0.03359 -1.037149,0.03359 z m 28.0655497,0.028939 c -0.11897,0 -0.178284,0.048231 -0.178284,0.1446944 0,0.07717 0.05162,0.1225309 0.154513,0.1353927 0.247588,0.03537 0.416399,0.088424 0.506431,0.1591638 0.09003,0.067524 0.144522,0.1991846 0.163814,0.3953258 0.02251,0.1929258 0.03359,0.7138264 0.03359,1.5626998 l -0.02894,2.4840932 c 0,0.5208996 -0.05449,0.8662144 -0.163814,1.0366321 -0.10611,0.1672024 -0.314941,0.2511482 -0.626837,0.2511482 -0.122187,0 -0.183452,0.044844 -0.183452,0.1348759 0,0.099678 0.07574,0.1493453 0.22686,0.1493453 0.03215,0 0.08182,-0.00287 0.149345,-0.0093 0.543408,-0.032154 0.949988,-0.048576 1.220084,-0.048576 0.241158,0 0.573955,0.00965 0.998392,0.028939 0.427652,0.019293 0.887804,0.030891 1.379765,0.034107 l 1.745634,0.00465 0.313677,-1.3844156 c 0.01929,-0.080386 0.02894,-0.1459577 0.02894,-0.1974045 0,-0.07717 -0.0468,-0.1157556 -0.140043,-0.1157556 -0.06431,0 -0.123622,0.05449 -0.178285,0.1638148 -0.385851,0.7781339 -1.191318,1.1673739 -2.416396,1.1673739 -0.337621,0 -0.577343,-0.041973 -0.718822,-0.1255741 -0.141479,-0.086817 -0.223472,-0.1991846 -0.24598,-0.337448 -0.02251,-0.1382635 -0.03359,-0.5742996 -0.03359,-1.3074175 0,-0.1704178 0.0082,-0.5253789 0.02429,-1.0655711 0.491961,0.00643 0.851745,0.088424 1.080041,0.2459806 0.228295,0.1543406 0.374942,0.3810288 0.43925,0.6800637 0.03859,0.1704178 0.09308,0.2552823 0.163815,0.2552823 0.102894,0 0.154513,-0.044844 0.154513,-0.1348758 0,-0.022508 -0.0034,-0.050012 -0.0098,-0.082166 -0.02251,-0.11254 -0.03359,-0.237942 -0.03359,-0.3762055 0,-0.9935677 0.01929,-1.5896865 0.05788,-1.7890432 0.0064,-0.028939 0.0093,-0.055007 0.0093,-0.077515 0,-0.07717 -0.04484,-0.1157556 -0.134875,-0.1157556 -0.07074,0 -0.120407,0.051619 -0.149346,0.154513 -0.01608,0.057878 -0.08217,0.1895383 -0.197921,0.3953258 -0.115756,0.2025721 -0.257062,0.3361849 -0.424265,0.4004935 -0.163987,0.061093 -0.360301,0.091468 -0.588596,0.091468 l -0.366387,-0.00465 c -0.0064,-0.2733115 -0.0098,-0.4676731 -0.0098,-0.5834286 0,-0.6784556 0.02894,-1.3025947 0.08682,-1.8717257 0.270096,-0.048231 0.549839,-0.072347 0.839228,-0.072347 0.517684,0 0.913183,0.07717 1.186494,0.2315111 0.276527,0.1543406 0.580386,0.4726687 0.911575,0.9549831 0.06431,0.090032 0.122186,0.1353927 0.173633,0.1353927 0.09325,0 0.140044,-0.046796 0.140044,-0.1400435 C 43.2332,4.2257474 43.131914,3.7241395 43.02902,3.2225325 L 39.13674,3.208063 Z M 6.314878,3.4638621 c 0.3408355,0 0.6273538,0.1012862 0.8588647,0.3038583 0.2347264,0.202572 0.3519175,0.5064307 0.3519175,0.9115748 0,0.4276522 -0.1268374,0.7956473 -0.3808564,1.1043285 -0.2540189,0.3086813 -0.6370002,0.4630222 -1.1482536,0.4630222 -0.099678,0 -0.2409852,-0.00821 -0.4242647,-0.024288 V 3.5455111 C 5.8906131,3.4908488 6.1380293,3.4638621 6.314878,3.4638621 Z m 12.193089,1.220084 c 0.09968,0.254019 0.250631,0.6191432 0.453203,1.0950267 0.186495,0.4372985 0.324931,0.7811778 0.414963,1.0319813 l -1.697575,0.024288 z m 28.29241,0 c 0.09968,0.254019 0.251148,0.6191432 0.453721,1.0950267 0.186494,0.4372985 0.324414,0.7811778 0.414446,1.0319813 l -1.697576,0.024288 z" />
    <path
       id="path3285"
       style="fill:#bda598;fill-opacity:0.568627;stroke-width:4.60001"
       d="m 30.474962,-3.7093814 c -1.567467,0.252624 -0.900818,0.135095 -2.618451,0.461472 -0.889186,0.245732 -1.192684,0.320211 -2.123391,0.624253 -0.309748,0.101188 -0.621041,0.200633 -0.922427,0.324529 -0.534667,0.219795 -1.166775,0.572205 -1.611793,0.9286283 -0.256398,0.205356 -0.470323,0.45885801 -0.705385,0.68833201 -0.786859,1.277553 -0.111652,0.538645 -2.332164,1.164274 -0.713441,0.201012 -2.469437,0.0018 -2.124425,0.65784189 0.526331,1.0007901 2.173267,0.695482 3.142454,1.2779621 0.355255,0.21351 -0.644683,1.053744 -0.175184,1.230937 -0.01911,0.357027 -0.06888,0.620099 0.04031,0.966352 0.19577,0.620806 0.667364,1.102178 1.211816,1.431958 l 0.15968,-0.245464 c -0.498641,-0.30013 -0.935241,-0.735293 -1.105364,-1.307934 -0.07979,-0.268568 -0.03206,-0.557321 -0.01447,-0.827342 0.438255,0.0036 -0.228523,-1.14439 0.172083,-1.201998 1.118533,-0.160847 2.375307,0.546014 3.389467,0.04754 0.547387,-0.269048 -1.12441,-0.5248781 -1.568385,-0.9430981 -1.340429,-1.26267589 -1.14983,-1.12167689 -0.546738,-2.09755189 0.219869,-0.210587 0.420188,-0.443671 0.659393,-0.63200501 0.426239,-0.3355893 1.026862,-0.6672853 1.535828,-0.8748853 0.291626,-0.118948 0.592446,-0.214675 0.891938,-0.312126 0.94233,-0.30662 1.208208,-0.370398 2.104787,-0.618052 1.779605,-0.336799 0.888489,-0.179984 2.775549,-0.485243 0.210095,-0.03399 0.420803,-0.06515 0.630971,-0.0987 -0.01359,-0.0011 -0.02724,-0.0023 -0.04083,-0.0036 -0.108744,-0.01064 -0.216989,-0.02625 -0.324529,-0.04547 -0.07382,-0.01291 -0.146375,-0.03085 -0.219625,-0.04651 -0.0819,-0.02353 -0.165701,-0.03965 -0.249081,-0.05684 -0.01068,-0.0024 -0.02137,-0.0048 -0.03204,-0.0072 z" />
  </g>
</svg>
