<?xml version="1.0" encoding="UTF-8" standalone="no"?>
<!-- Created with Inkscape (http://www.inkscape.org/) -->

<svg
   width="160"
   height="40"
   viewBox="0 0 42.333457 10.583333"
   version="1.1"
   id="svg5"
   inkscape:version="1.2.2 (732a01da63, 2022-12-09)"
   sodipodi:docname="plantealogo.svg"
   xmlns:inkscape="http://www.inkscape.org/namespaces/inkscape"
   xmlns:sodipodi="http://sodipodi.sourceforge.net/DTD/sodipodi-0.dtd"
   xmlns="http://www.w3.org/2000/svg"
   xmlns:svg="http://www.w3.org/2000/svg">
  <sodipodi:namedview
     id="namedview7"
     pagecolor="#505050"
     bordercolor="#eeeeee"
     borderopacity="1"
     inkscape:showpageshadow="0"
     inkscape:pageopacity="0"
     inkscape:pagecheckerboard="0"
     inkscape:deskcolor="#505050"
     inkscape:document-units="mm"
     showgrid="false"
     inkscape:zoom="3.2842761"
     inkscape:cx="68.356006"
     inkscape:cy="40.952708"
     inkscape:window-width="1368"
     inkscape:window-height="842"
     inkscape:window-x="-6"
     inkscape:window-y="-6"
     inkscape:window-maximized="1"
     inkscape:current-layer="layer1" />
  <defs
     id="defs2" />
  <g
     inkscape:label="Layer 1"
     inkscape:groupmode="layer"
     id="layer1">
    <text
       xml:space="preserve"
       style="font-style:normal;font-variant:normal;font-weight:bold;font-stretch:normal;font-size:8.88011px;font-family:'Bell MT';-inkscape-font-specification:'Bell MT, Bold';font-variant-ligatures:normal;font-variant-caps:normal;font-variant-numeric:normal;font-variant-east-asian:normal;fill:#ffffff;fill-opacity:0.80829018;stroke-width:4.60001"
       x="0.27778086"
       y="8.3767328"
       id="text2968-9"><tspan
         sodipodi:role="line"
         id="tspan2966-9"
         style="font-style:normal;font-variant:normal;font-weight:bold;font-stretch:normal;font-size:8.88011px;font-family:'Bell MT';-inkscape-font-specification:'Bell MT, Bold';font-variant-ligatures:normal;font-variant-caps:normal;font-variant-numeric:normal;font-variant-east-asian:normal;fill:#ffffff;fill-opacity:0.80829018;stroke-width:4.60001"
         x="0.27778086"
         y="8.3767328">PLANTEA</tspan></text>
    <path
       id="path3317"
       style="fill:#bda598;fill-opacity:0.56862748;stroke-width:4.60001"
       d="m 30.628194,5.8218682 c -0.14153,-0.00899 -0.788635,0.9764704 -2.667028,1.917718 C 27.839855,7.8003662 27.763138,7.5541523 27.659374,7.4667339 27.367973,7.22126 27.050003,7.0068732 26.74935,6.7732341 l -0.176217,0.2330614 c 0.299592,0.2329013 0.616045,0.4461987 0.906407,0.690916 0.09812,0.082685 0.352512,0.1499532 0.284738,0.2588996 -1.546074,2.4853229 -3.155626,2.9123569 -1.377181,2.3006419 0.804066,-0.3662308 1.539508,-0.9610101 2.412263,-1.0986445 0.273907,-0.043196 0.359886,0.42179 0.539503,0.6330381 0.355619,0.4183514 0.418299,0.4768434 0.690916,0.8733344 0.0045,-0.0194 0.0086,-0.03535 0.01344,-0.05684 0.025,-0.110889 0.01676,-0.129945 0.06046,-0.127125 0.01457,9.4e-4 0.03487,0.004 0.06408,0.0072 0.03507,0.0041 0.07008,0.0091 0.104903,0.01447 -0.107497,-0.154363 -0.218065,-0.306681 -0.333314,-0.45527 C 29.852265,9.9346484 29.0209,8.9763579 29.023119,8.9700057 29.313631,8.138176 30.033702,7.525682 30.538794,6.8037233 c 0.0991,-0.6998521 0.163535,-0.9771481 0.0894,-0.9818551 z m 3.651984,4.0380083 c -0.471109,0.1931255 -0.930997,0.4232805 -1.3932,0.6459575 0.05814,0.0043 0.115999,0.0099 0.17415,0.0155 0.140002,0.01216 0.279186,0.03143 0.417546,0.05581 0.242573,-0.205146 0.508775,-0.44164 0.801504,-0.7172705 z m -6.510732,3.8075305 c -0.06067,0.04647 -0.120822,0.09347 -0.180352,0.141077 0.11918,-0.03834 0.237726,-0.07952 0.356052,-0.121957 -0.02395,-0.0018 -0.04786,-0.004 -0.07183,-0.0057 -0.03543,-0.0047 -0.06913,-0.009 -0.103869,-0.01344 z m 2.421564,1.363228 c -0.02058,0.02204 -0.02626,0.05525 -0.0124,0.113689 0.0043,0.0011 0.0086,0.002 0.01292,0.0031 -0.0011,-0.03897 -9.65e-4,-0.07777 -5.17e-4,-0.116789 z m 4.911859,0.27337 c 0.0044,0.01041 0.0068,0.0161 0.01137,0.02687 0.0032,0.0077 0.01027,-0.0233 0.0021,-0.0248 -0.0044,-8.02e-4 -0.009,-0.0013 -0.01344,-0.0021 z m 0.0186,0.253215 c -0.02815,0.0094 -0.05655,0.01818 -0.08475,0.02739 0.01027,0.0294 0.01555,0.06062 0.01757,0.09302 0.0044,1.25e-4 0.0086,3.76e-4 0.01292,5.17e-4 0.01882,-0.04088 0.03636,-0.08074 0.05426,-0.120923 z m -1.5627,2.139927 c -0.005,0.0028 -0.0096,0.0055 -0.01447,0.0083 0.0024,0.0026 0.0048,0.0052 0.0072,0.0078 0.0024,-0.0053 0.005,-0.01062 0.0072,-0.01602 z" />
    <path
       id="path3295"
       style="fill:#bda598;fill-opacity:0.5699482;stroke-width:4.60001"
       d="m 16.542708,-0.00673358 c -0.138931,0.02356476 -0.275898,0.05654831 -0.41548,0.07596458 -0.06896,0.0106195 -0.137993,0.01932163 -0.207223,0.02687182 0.08567,0.02453125 0.171929,0.04938308 0.295073,0.08371606 0.65589,0.26405281 1.857742,0.7162634 1.870693,1.59318902 0.0022,0.1512532 -0.07843,0.2921667 -0.117823,0.4382175 -0.253641,0.2745898 -0.336507,0.3775472 -0.628904,0.6330381 -0.366735,0.3204464 -0.839167,0.4707257 -1.255224,0.7121033 -0.425027,0.2629135 -0.840291,0.5409231 -1.173575,0.92036 -0.128849,0.1466912 -0.240108,0.3079049 -0.347784,0.4707737 -0.431487,0.6526591 -0.405401,0.665033 -0.725539,1.363745 -0.03124,0.1663582 -0.07359,0.3311089 -0.09353,0.4991958 -0.05826,0.4908993 -0.07897,0.9392559 -0.0093,1.429891 0.0207,0.1458647 0.06966,0.2864015 0.115755,0.4263319 0.05276,0.1601815 0.298216,0.3517135 0.180868,0.4728407 -0.676023,0.6978001 -1.555276,1.1654891 -2.332681,1.7482191 0.885724,-0.404112 1.723003,-0.9383405 2.65721,-1.2123329 0.141289,-0.041439 0.160344,0.2485581 0.260967,0.3560519 0.0834,0.08909 0.179546,0.16926 0.286288,0.22841 0.09762,0.0541 0.209067,0.07918 0.317294,0.106454 0.377205,0.09509 0.43285,0.08255 0.79892,0.104387 0.716719,0.01944 1.438938,0.074 2.15078,-0.04082 0.26881,-0.04011 0.544894,-0.06994 0.815456,-0.01654 0.06333,0.0125 0.121674,0.04351 0.180868,0.06925 0.111954,0.04869 0.307163,0.148529 0.420648,0.205673 L 19.7141,10.425218 c -0.115965,-0.05842 -0.30868,-0.157285 -0.422198,-0.206706 -0.06622,-0.02883 -0.131392,-0.0631 -0.202055,-0.07803 -0.342411,-0.07236 -0.623959,-0.04759 -0.962218,0 -0.695357,0.111616 -1.400594,0.05671 -2.100653,0.03772 -0.349716,-0.02101 -0.39785,-0.0078 -0.751378,-0.09922 -0.0952,-0.0246 -0.193318,-0.04706 -0.278537,-0.096118 -0.07509,-0.043232 -0.136847,-0.1089836 -0.192753,-0.1751836 -0.07944,-0.094068 -0.29833,-0.2161922 -0.210841,-0.3028248 0.69119,-0.6844266 1.54189,-1.1858294 2.313044,-1.778708 C 16.03122,8.1467634 15.210768,8.7083513 14.280824,8.9880925 14.136279,9.0315745 14.169286,8.7070496 14.12321,8.563311 14.08115,8.4321063 14.035334,8.3008912 14.016756,8.1643678 13.956667,7.7226637 13.98165,7.2717986 14.03536,6.8316287 14.05452,6.67463 14.094444,6.520837 14.124244,6.3655059 14.422934,5.7344825 14.411723,5.7026871 14.812059,5.0999464 14.915179,4.9446915 15.021953,4.7905375 15.145373,4.6508769 15.453788,4.3018771 15.844678,4.0467404 16.237299,3.805448 16.665467,3.5655412 17.139222,3.401702 17.515778,3.0778417 17.819211,2.8168711 17.920554,2.6927472 18.182406,2.4101802 18.243506,2.2263201 18.356507,2.0517938 18.365858,1.8582743 18.409708,0.95071531 17.547849,0.45492992 16.8507,0.12245788 16.750147,0.07450372 16.646734,0.0332678 16.542708,-0.00673358 Z M 11.963646,0.06044598 C 11.751676,0.1236945 11.53346,0.19075558 11.286166,0.26456848 9.6266411,0.89482066 8.0546705,1.766059 6.6724804,2.8835377 6.4611032,3.0544326 6.3253474,3.4692888 6.0580459,3.4199407 5.437724,3.3054191 4.9677112,2.7852953 4.422482,2.468058 4.633051,3.2093282 5.6403645,4.1917389 5.0539698,4.6917014 4.1902001,5.4281548 2.6961527,4.3864842 1.6515836,4.8307114 1.1793694,5.0315314 1.2610661,5.8011097 1.240238,6.3138293 1.205955,7.1577703 0.78344736,8.371011 1.4888024,8.8356466 2.49824,9.500589 3.9112472,8.7561247 5.1149482,8.8666525 5.3685943,8.8899435 5.5632679,9.1091874 5.7872606,9.2304557 6.6937461,9.5314958 6.8408186,9.6074308 7.7928288,9.8107837 8.3834637,9.9369454 8.9048872,10.028869 9.5115919,9.9131033 9.7808594,9.8617247 10.05591,9.7848161 10.28519,9.6345666 10.507417,9.4889394 10.646979,9.2452923 10.827794,9.0506212 L 10.609203,8.8563172 C 10.467457,9.024323 10.364982,9.2355487 10.183904,9.3601639 9.7686532,9.6459345 9.1510374,9.6898529 8.6759816,9.6624719 8.401966,9.6466788 8.132084,9.5836934 7.8636257,9.5265625 6.9501585,9.3321663 6.7877654,9.2547604 5.92317,8.971556 4.7214849,8.3576159 4.4564632,8.4113025 7.5189429,7.331858 6.8620071,6.4353735 5.5013242,5.9475333 5.2947827,4.8581 5.1759969,4.2315472 6.536495,5.1505622 7.1572068,5.2968342 6.855038,4.7446098 6.3389452,4.2633708 6.2507995,3.6400829 6.2137022,3.3777639 6.6428032,3.2833173 6.8486976,3.1165991 8.2029654,2.0200118 9.7439327,1.165576 11.369882,0.54517233 c 0.485721,-0.14520349 0.853953,-0.26342971 1.258325,-0.37000434 -0.02774,0.001061 -0.05548,0.002363 -0.0832,0.003101 -0.135932,0.00765 -0.271462,-0.003788 -0.405661,-0.0253215 -0.03305,-0.005304 -0.07052,-1.184e-5 -0.0987,-0.0180868 -0.03015,-0.0193414 -0.05353,-0.04680107 -0.077,-0.07441428 z M 7.5189429,7.331858 c 0.01076,0.014683 0.021667,0.029018 0.032039,0.043925 C 7.6586378,7.5304827 7.2908711,8.0540796 7.4316094,7.9287225 7.6016113,7.7773003 7.870105,7.2076656 7.655369,7.283282 c -0.05238,0.018445 -0.08588,0.03076 -0.1364261,0.048576 z" />
    <path
       id="path3285"
       style="fill:#bda598;fill-opacity:0.56862748;stroke-width:4.60001"
       d="M 29.197786,-0.12300589 C 27.630318,0.12961803 28.296967,0.01208936 26.579334,0.338466 25.690148,0.58419835 25.38665,0.65867685 24.455943,0.96271912 24.146195,1.0639077 23.834902,1.1633523 23.533516,1.2872481 22.998849,1.5070436 22.366741,1.8594534 21.921723,2.2158763 21.665325,2.4212323 21.4514,2.6747341 21.216338,2.9042084 c -0.786859,1.2775531 -0.111652,0.5386451 -2.332164,1.1642734 -0.713441,0.2010121 -2.469437,0.00182 -2.124425,0.6578429 0.526331,1.0007896 2.173267,0.6954812 3.142454,1.2779619 0.355255,0.2135095 -0.644683,1.0537435 -0.175184,1.2309362 -0.01911,0.3570276 -0.06888,0.6200997 0.04031,0.9663521 0.19577,0.6208067 0.667364,1.1021782 1.211816,1.4319581 l 0.15968,-0.2454637 C 20.640184,9.0879392 20.203584,8.6527765 20.033461,8.0801349 19.953671,7.8115673 20.001402,7.5228146 20.018992,7.2527928 20.457247,7.2563828 19.790469,6.1084034 20.191075,6.0507955 21.309608,5.8899483 22.566382,6.5968096 23.580542,6.098338 24.127929,5.8292901 22.456132,5.5734606 22.012157,5.1552403 20.671728,3.8925642 20.862327,4.0335636 21.465419,3.0576878 21.685288,2.8471009 21.885607,2.6140169 22.124812,2.4256832 22.551051,2.0900947 23.151674,1.758398 23.66064,1.5507986 23.952266,1.43185 24.253086,1.336123 24.552578,1.2386721 c 0.94233,-0.30661963 1.208208,-0.3703979 2.104787,-0.61805196 1.779605,-0.3367987 0.888489,-0.17998429 2.77555,-0.48524312 0.210095,-0.0339856 0.420803,-0.06514856 0.630971,-0.09870227 -0.01359,-0.0011428 -0.02724,-0.0023141 -0.04083,-0.0036174 -0.108744,-0.01064196 -0.216989,-0.02625013 -0.324529,-0.04547539 -0.07382,-0.01290554 -0.146375,-0.03085033 -0.219625,-0.04650893 -0.0819,-0.02353275 -0.165701,-0.03965502 -0.249081,-0.05684424 -0.01068,-0.002441 -0.02137,-0.004794 -0.03204,-0.007235 z" />
    <path
       id="path3291"
       style="fill:#bda598;fill-opacity:0.56862748;stroke-width:4.60001"
       d="m 38.823067,-0.02533715 c -0.265772,0.07211278 -0.529435,0.15110794 -0.786001,0.25063143 -1.687165,0.65446181 -2.802802,1.35981372 -4.27107,2.42414852 -0.850107,0.6162355 -3.069694,1.0617219 -2.485643,1.9342545 0.777082,1.1609141 2.769177,0.3718431 4.153763,0.5575903 0.19466,0.5708805 0.389287,1.1416819 0.583946,1.712562 -0.838055,0.3171153 -2.637177,0.063816 -2.514066,0.9513659 0.128411,0.9257658 1.868161,0.2723617 2.733174,0.6263202 0.208178,0.085186 -0.307243,0.6788928 -0.344682,0.7126201 -0.101717,0.091634 -0.221933,0.1605274 -0.338999,0.2315111 -0.11711,0.07101 -0.241989,0.1292183 -0.362769,0.1937872 l 0.08682,0.2795703 C 35.646699,9.6517376 36.127379,9.455635 36.336906,9.059923 36.425936,8.89178 36.337257,8.5827962 36.516224,8.5183524 39.479993,7.4514063 41.14227,8.7475528 36.303833,6.7918377 34.131316,0.39879115 37.822718,13.016587 38.831335,2.2541169 38.920175,1.3061941 36.888991,2.4985569 35.97517,2.2313792 35.723421,2.1577744 35.887316,1.6165457 36.092476,1.4531299 36.687514,0.97916788 37.450385,0.76119127 38.16109,0.48987838 38.650917,0.30288569 39.16488,0.18811779 39.67263,0.05476155 39.51745,0.04838895 39.362329,0.03654173 39.208057,0.02065501 39.079724,0.00507177 38.951404,-0.01002749 38.823067,-0.02533715 Z" />
    <text
       xml:space="preserve"
       style="font-style:normal;font-variant:normal;font-weight:bold;font-stretch:normal;font-size:8.88011px;font-family:'Bell MT';-inkscape-font-specification:'Bell MT, Bold';font-variant-ligatures:normal;font-variant-caps:normal;font-variant-numeric:normal;font-variant-east-asian:normal;fill:#1d1106;fill-opacity:1;stroke-width:4.60001"
       x="-0.083998911"
       y="8.3516998"
       id="text2968"><tspan
         sodipodi:role="line"
         id="tspan2966"
         style="font-style:normal;font-variant:normal;font-weight:bold;font-stretch:normal;font-size:8.88011px;font-family:'Bell MT';-inkscape-font-specification:'Bell MT, Bold';font-variant-ligatures:normal;font-variant-caps:normal;font-variant-numeric:normal;font-variant-east-asian:normal;fill:#1d1106;fill-opacity:1;stroke-width:4.60001"
         x="-0.083998911"
         y="8.3516998">PLANTEA</tspan></text>
  </g>
</svg>
